<?xml version="1.0" standalone="no"?>
<!DOCTYPE svg PUBLIC "-//W3C//DTD SVG 20010904//EN"
 "http://www.w3.org/TR/2001/REC-SVG-20010904/DTD/svg10.dtd">
<svg version="1.0" xmlns="http://www.w3.org/2000/svg"
 width="531.000000pt" height="136.000000pt" viewBox="0 0 531.000000 136.000000"
 preserveAspectRatio="xMidYMid meet">

<g transform="translate(0.000000,136.000000) scale(0.100000,-0.100000)"
fill="#000000" stroke="none">
<path d="M609 1218 c-23 -40 -49 -85 -57 -99 -14 -25 -13 -30 38 -119 30 -50
61 -95 71 -98 10 -4 64 -5 120 -2 l103 5 54 94 c52 90 54 95 40 120 -9 14 -34
59 -57 99 l-42 72 -114 0 -114 0 -42 -72z"/>
<path d="M1680 670 l0 -480 100 0 100 0 0 385 0 385 265 0 265 0 0 -385 c0
-336 2 -385 15 -385 13 0 15 60 15 480 0 420 -2 480 -15 480 -12 0 -15 -15
-15 -75 l0 -75 -265 0 -265 0 0 75 0 75 -100 0 -100 0 0 -480z"/>
<path d="M2540 670 l0 -480 310 0 c303 0 310 0 310 20 0 19 -7 20 -210 20
l-210 0 0 365 0 365 270 0 c263 0 270 0 270 20 0 20 -7 20 -270 20 l-270 0 0
60 0 60 210 0 c180 0 210 2 210 15 0 13 -41 15 -310 15 l-310 0 0 -480z"/>
<path d="M3790 1144 c-8 -3 -44 -15 -80 -26 -379 -121 -451 -612 -121 -829
102 -68 181 -91 306 -91 76 -1 115 4 162 20 181 63 309 197 344 363 7 30 9 88
6 132 -4 64 -12 94 -41 152 -65 131 -197 237 -336 269 -61 15 -207 20 -240 10z
m260 -54 c325 -94 429 -487 191 -720 -151 -147 -379 -182 -572 -86 l-64 31 -3
356 -2 357 47 24 c129 67 259 79 403 38z"/>
<path d="M4510 1148 c0 -2 0 -217 -1 -478 l0 -475 320 -3 c316 -2 321 -2 321
18 0 19 -6 20 -220 20 l-220 0 0 460 0 460 -100 0 c-55 0 -100 -1 -100 -2z"/>
<path d="M226 986 c-31 -52 -56 -100 -56 -106 0 -7 25 -54 55 -106 l56 -94
112 0 113 0 57 99 57 100 -58 100 -57 101 -112 0 -112 0 -55 -94z"/>
<path d="M967 980 l-57 -100 57 -100 58 -101 114 3 115 3 52 90 c29 50 53 95
54 102 0 6 -24 53 -54 105 l-54 93 -113 3 -114 2 -58 -100z"/>
<path d="M218 549 l-57 -100 57 -99 57 -100 115 0 115 0 53 95 c28 53 52 100
52 105 0 5 -24 52 -52 104 l-53 95 -115 1 -115 0 -57 -101z"/>
<path d="M968 549 l-57 -100 57 -99 57 -100 115 1 115 0 53 94 c28 51 52 99
52 107 -1 7 -25 54 -54 103 l-52 90 -115 3 -114 2 -57 -101z"/>
<path d="M637 418 c-33 -52 -97 -167 -97 -173 0 -3 25 -49 56 -101 l55 -94
114 0 114 0 42 73 c23 39 48 84 57 98 14 25 12 30 -40 120 l-54 94 -117 3
c-112 3 -117 2 -130 -20z"/>
</g>
</svg>
