<?xml version="1.0" standalone="no"?>
<!DOCTYPE svg PUBLIC "-//W3C//DTD SVG 20010904//EN"
 "http://www.w3.org/TR/2001/REC-SVG-20010904/DTD/svg10.dtd">
<svg version="1.0" xmlns="http://www.w3.org/2000/svg"
 width="359.000000pt" height="286.000000pt" viewBox="0 0 359.000000 286.000000"
 preserveAspectRatio="xMidYMid meet">

<g transform="translate(0.000000,286.000000) scale(0.100000,-0.100000)"
fill="#000000" stroke="none">
<path d="M1419 2653 c-46 -80 -102 -178 -125 -217 l-40 -71 125 -217 125 -218
251 0 250 1 120 212 c66 116 120 217 120 222 0 6 -54 106 -120 223 l-120 211
-251 1 -251 0 -84 -147z"/>
<path d="M562 2114 c-79 -138 -121 -221 -117 -232 3 -9 59 -107 123 -219 l117
-203 251 0 251 0 122 213 c66 117 121 216 121 220 0 4 -55 103 -121 222 l-122
215 -251 0 -251 0 -123 -216z"/>
<path d="M2282 2263 c-30 -53 -191 -333 -208 -364 -2 -3 52 -102 120 -220
l124 -214 252 0 253 0 87 150 c47 83 103 179 122 215 l37 65 -123 215 -123
215 -251 3 -251 2 -39 -67z"/>
<path d="M662 1358 c-10 -18 -67 -117 -126 -220 l-108 -188 124 -215 123 -215
255 3 254 2 118 205 c65 113 118 211 118 218 0 8 -54 110 -121 228 l-121 214
-248 0 -248 0 -20 -32z"/>
<path d="M2203 1176 c-68 -118 -123 -221 -123 -228 1 -7 54 -105 120 -218
l118 -205 254 -3 254 -2 123 214 122 215 -123 220 -123 220 -250 1 -250 0
-122 -214z"/>
<path d="M1379 722 l-126 -219 125 -216 126 -217 250 0 251 0 120 211 c66 116
120 216 120 222 0 7 -54 108 -120 224 l-120 213 -250 0 -250 0 -126 -218z"/>
</g>
</svg>
